<?xml version="1.0" encoding="UTF-8"?>
<svg id="Layer_1" xmlns="http://www.w3.org/2000/svg" version="1.1" viewBox="0 0 147.44 19.82">
  <!-- Generator: Adobe Illustrator 29.4.0, SVG Export Plug-In . SVG Version: 2.1.0 Build 152)  -->
  <defs>
    <style>
      .st0 {
        fill: #205aa9;
      }

      .st1 {
        fill: #d72638;
      }
    </style>
  </defs>
  <g>
    <path class="st0" d="M8.8,5.76c.02.09,0,.17-.08.24-.07.07-.16.1-.26.1h-.28c-.1,0-.2-.03-.31-.1-.11-.07-.16-.16-.16-.28v-.28c0-.29-.24-.44-.76-.44-.44,0-1.05-.04-1.84-.11s-1.37-.11-1.75-.11c-.47,0-.71.14-.71.41v1.75c0,.32-.11.49-.32.49h-.25c-.23,0-.34-.22-.34-.66v-2.57c0-.22.11-.32.34-.32l4.94.18c.18,0,.29-.04.34-.16,0-.04.01-.16.01-.37s.13-.31.4-.31h.51c.13,0,.21.07.24.22.03.15.06.29.09.42.02.13.04.39.04.77,0,.34.05.72.15,1.15ZM6.96,13.97c0,.23-.11.34-.34.34h-3.56c-.26,0-.4-.16-.4-.49,0-.28.13-.43.4-.43.71,0,1.29-.05,1.74-.16.46-.11.84-.16,1.15-.16.26,0,.49.05.68.15.22.13.32.3.32.51v.24ZM5.64,12.31c0,.22-.11.32-.34.32h-.25c-.22,0-.32-.11-.32-.32v-6.47c0-.23.11-.34.32-.34h.25c.23,0,.34.11.34.34v6.47Z"/>
    <path class="st0" d="M9.3,4.08c.02-.24.15-.35.38-.35.13,0,.25.04.36.11.11.07.17.15.17.24l-.04,6.14c.3.24.69.37,1.16.37.79,0,1.42-.34,1.87-1.01.24-.34.36-1.41.37-3.22v-1.61c0-.35,0-.57.03-.64.07-.25.2-.38.4-.38.12,0,.23.04.35.13.11.09.17.17.17.25v8.21c.22.07.32.22.32.47,0,.18-.06.33-.18.48-.12.14-.26.21-.44.21-.28-.04-.47-.34-.56-.9-.04-.27-.06-.8-.06-1.59-.52.13-1.2.26-2.03.41-.53.09-.87.18-1.03.28-.19.13-.29.37-.32.72v1.9c-.02.28-.16.43-.43.43-.3,0-.47-.14-.48-.43v-1.9c-.02-.24-.03-.49-.04-.72-.02-.3-.12-.53-.29-.69-.38-.06-.82-.33-1.32-.81-.26-.25-.4-.58-.4-.98,0-.28.06-.47.18-.54.14-.09.29,0,.46.28.2.34.45.6.75.78.22.13.42.19.57.19,0-.24,0-.89-.01-1.94-.01-.78-.01-1.43,0-1.93.02-.72.06-1.37.12-1.95Z"/>
    <path class="st0" d="M21.69,11.66c-.16.16-.35.39-.57.71-.22.28-.42.5-.6.68-.32.3-.95.73-1.87,1.27-.49,0-.83-.03-1.01-.09-.26-.08-.53-.27-.82-.57-.12-.14-.24-.27-.35-.4-.12-.13-.27-.24-.46-.32-.14-.07-.36-.25-.66-.53-.27-.26-.45-.39-.51-.41,0-.29.18-.69.53-1.19.49-.68.75-1.05.79-1.12.32-.64.49-1.04.49-1.21,0-.3-.37-.46-1.1-.46-.12-.05-.18-.13-.18-.24,0-.12.12-.39.37-.81.33-.54.57-.99.71-1.34.25-.62.38-1.23.38-1.84l.03-.22s.22-.08.5-.09c.25,0,.82-.01,1.7-.01.52,0,.88.06,1.08.15.2.09.28.26.24.51v.57c0,.23-.63.34-1.9.34-.05.1-.25.32-.6.68-.28.29-.43.53-.43.72,0,.13.03.24.1.32.1.13.16.22.18.28l2.32-.26c.44-.06.66.08.66.41,0,.21-.09.41-.26.61-.17.2-.36.3-.57.29-.27,0-.59.03-.93.13-.35.09-.65.14-.9.14-.2.24-.39.47-.59.71-.26.31-.45.65-.57,1.02-.18.49-.27,1.11-.28,1.86,0,.26.13.46.38.62.22.12.44.23.66.34.13.09.26.13.4.13.15,0,.48-.09,1-.28.21-.07.44-.29.69-.67.41-.59.65-.92.72-.99.15-.18.38-.27.69-.27s.52.07.66.22c.16.18.12.38-.12.62Z"/>
    <path class="st0" d="M27.11,9.35v-4.75c-.7,0-1,0-.88,0-.31-.03-.46-.14-.46-.35v-.25c0-.21.11-.32.32-.32h2.23v1.13c-.11,0-.21.53-.31,1.55v4.98c.06.29.39.75,1,1.35.29.3.67.46,1.13.46.26,0,.41-.1.43-.3.07-.57.12-.95.16-1.12.08-.4.19-.62.34-.65h.25c.22,0,.32.11.32.32v1.26c0,.45-.16.84-.48,1.17s-.71.49-1.16.49h-.59c-.17,0-.41-.14-.73-.43l-.59-.56c-.06-.05-.29-.33-.69-.85-.24-.31-.52-.47-.84-.47-.23,0-.34-.09-.34-.28,0-.17.15-.54.44-1.13.29-.59.44-1,.44-1.24Z"/>
    <path class="st0" d="M39.5,12.99c-.44.26-.96.52-1.56.78-.79.36-1.33.54-1.6.54-.67,0-1.53-.22-2.6-.66-.97-.4-1.56-.74-1.78-1.01-.22-.27-.32-.49-.32-.66,0-.3.1-.54.29-.72.28-.26.46-.47.53-.62.15-.28.34-.72.59-1.32.24-.59.44-1.03.57-1.32.21-.76.41-1.51.62-2.27.35-1.24.7-1.88,1.04-1.93h1.6c.36,0,.58.22.66.66.11.67.22,1.34.32,2.02.13.81.27,1.43.43,1.84.42,1.19.88,2.2,1.38,3.05.27.33.41.62.41.85,0,.27-.2.53-.59.75ZM38.5,11.99c0-.5-.11-1.03-.32-1.6-.23-.54-.45-1.08-.66-1.62-.03-.09-.16-.82-.4-2.19-.2-1.08-.38-1.61-.56-1.6h-.88c-.13.03-.38.55-.75,1.58-.22.63-.43,1.26-.65,1.89-.23.56-.45,1.12-.68,1.69-.23.57-.37,1.11-.44,1.63.21.24.6.5,1.18.78.65.31,1.17.47,1.57.47.66,0,1.24-.12,1.75-.34.44-.2.72-.42.84-.68ZM36.42,11.03c-.49.53-.95.79-1.37.79-.34,0-.51-.13-.51-.4,0-.38.39-.87,1.18-1.45.79-.59,1.28-.77,1.46-.56.12.13.18.26.18.38,0,.17-.1.36-.31.58s-.42.44-.63.65Z"/>
    <path class="st0" d="M45.08,3.35h.57c.25,0,.36.11.34.34-.3,2.46-.46,4.46-.46,6.01,0,1.46.14,2.86.43,4.2.02.04.03.09.03.16,0,.12-.04.24-.13.37-.08.13-.16.2-.24.2h-.57c-.23,0-.34-.11-.34-.34V5.92c-.5,0-1.19.47-2.06,1.4-.39.42-.72.87-1,1.34-.27.47-.41,1.34-.41,2.62,0,.37.02.88.05,1.53.03.61.05,1,.04,1.16,0,.23-.11.34-.33.34h-.58c-.21,0-.31-.22-.31-.66,0-.17.05-.4.15-.71s.15-.51.15-.62V4.23c0-.22.1-.32.31-.32h.27c.22,0,.33.11.33.32v2.43c.4,0,.82-.23,1.24-.68.39-.43.79-.87,1.18-1.31.06-.06.26-.34.59-.85.21-.31.45-.47.74-.47Z"/>
    <path class="st0" d="M50.52,3.79c.37.03.56.26.56.69,0,.35-.11.62-.34.79-.26.19-.52.11-.81-.24-.14-.19-.33-.28-.59-.28-.31,0-.58.09-.81.28-.1.07-.17.18-.21.34-.07.23-.11.36-.13.4-.13.26-.33,1.29-.6,3.07-.26,1.7-.38,2.74-.38,3.13,0,.28.25.58.78.9.58.34,1.21.51,1.91.51.45,0,.87-.05,1.28-.15.73-.2,1.1-.52,1.1-.97,0-.08,0-.16-.03-.25-.04-.16-.21-.62-.52-1.4-.35-.86-.57-1.35-.67-1.45s-.15-.2-.15-.3c0-.15.09-.26.28-.35.19-.09.41-.12.66-.1.18.02.31.14.4.36.09.22.18.43.26.64.75,1.29,1.08,2.37.98,3.22,0,.33-.1.61-.29.82-.12.14-.35.3-.69.5-.38.23-.72.34-1,.34.03,0-.13,0-.48.02-.35.01-.67.02-.98.02-1.22,0-2.02-.13-2.43-.38-1.11-.69-1.66-1.35-1.66-1.98,0-.28.24-1.57.73-3.85.5-2.32.81-3.55.93-3.67.44-.52.92-.78,1.43-.78.03,0,.52.04,1.47.12ZM50.27,6.77c.42-.2.79-.29,1.1-.29s.5.09.54.28c.03.2-.12.44-.46.72-.28.18-.72.49-1.29.96-.25.24-.4.45-.47.65-.07.2-.13.39-.18.59-.24.85-.52,1.28-.82,1.28-.13,0-.24-.08-.32-.25-.09-.17-.13-.37-.13-.6,0-.69.24-1.31.73-1.88,0,0,.2-.28.57-.82.18-.27.42-.48.72-.62Z"/>
    <path class="st0" d="M65.41,9.54c0,.18-.11.33-.34.46-.26.16-.43.29-.48.41-.6,1.19-1.12,2.04-1.57,2.56-.76.89-1.6,1.34-2.51,1.34-1.37,0-2.25-.03-2.63-.09-.86-.15-1.39-.24-1.57-.26-.39-.03-.81-.25-1.25-.65-.44-.41-.66-.8-.66-1.17,0-.4.04-.68.12-.82.08-.19.24-.27.47-.25.19.02.34.18.47.47.21.48.35.78.44.9.26.35,1.14.58,2.63.69.63.06,1.07.09,1.32.09.88,0,1.58-.22,2.09-.66.61-.53,1.19-1.53,1.75-3.01.05-.14-.26-.57-.92-1.31-.66-.74-1.16-1.14-1.49-1.22-.09-.02-.17-.03-.25-.03-.2,0-.41.09-.63.26-.33.26-.56.43-.69.5-.36.18-.8.26-1.32.26-.14,0-.23-.07-.29-.21s-.07-.29-.04-.45c0-.04.05-.14.16-.31.11-.17.16-.28.16-.35v-1.91c0-.18.07-.33.2-.46.13-.13.29-.2.46-.2h2.53c.21,0,.32.12.33.35.01.23.07.46.15.7.09.24.13.45.13.65s.41.68,1.23,1.46,1.43,1.28,1.84,1.5c.11.06.17.17.18.32,0-.25-.01-.1-.01.46ZM61.05,5.29c-.19-.13-.37-.19-.54-.19-.11,0-.25.03-.43.09-.23.07-.39.11-.49.13.05.34.03.74-.04,1.19.24-.05.48-.2.74-.44.22-.24.45-.36.66-.38.18,0,.26-.07.26-.18,0-.08-.05-.15-.16-.22Z"/>
    <path class="st0" d="M72.45,5.76c.02.09,0,.17-.08.24-.07.07-.16.1-.26.1h-.28c-.1,0-.2-.03-.31-.1-.11-.07-.16-.16-.16-.28v-.28c0-.29-.24-.44-.76-.44-.44,0-1.05-.04-1.84-.11s-1.37-.11-1.75-.11c-.47,0-.71.14-.71.41v1.75c0,.32-.11.49-.32.49h-.25c-.23,0-.34-.22-.34-.66v-2.57c0-.22.11-.32.34-.32l4.94.18c.18,0,.29-.04.34-.16,0-.04.01-.16.01-.37s.13-.31.4-.31h.51c.13,0,.21.07.24.22.03.15.06.29.09.42.02.13.04.39.04.77,0,.34.05.72.15,1.15ZM70.61,13.97c0,.23-.11.34-.34.34h-3.56c-.26,0-.4-.16-.4-.49,0-.28.13-.43.4-.43.71,0,1.29-.05,1.74-.16.46-.11.84-.16,1.15-.16.26,0,.49.05.68.15.22.13.32.3.32.51v.24ZM69.29,12.31c0,.22-.11.32-.34.32h-.25c-.22,0-.32-.11-.32-.32v-6.47c0-.23.11-.34.32-.34h.25c.23,0,.34.11.34.34v6.47Z"/>
    <path class="st0" d="M81.96,15.3c0,.22-.11.32-.32.32h-3.9c-.32,0-.83-.45-1.53-1.34-.62-.78-1.02-1.41-1.21-1.87l-1.32.31c0,.78,0,1.14,0,1.07-.03.35-.15.52-.38.52h-.36c-.21,0-.32-.11-.32-.34,0-1.17-.03-2.58-.09-4.25-.06-1.67-.1-3.66-.1-5.97h3.23c.23,0,.34.11.34.34,0,.77.27,1.68.82,2.71.55,1.03.82,1.92.82,2.65,0,.22-.27.57-.81,1.05-.54.49-.81.81-.81.98,0,.35.28.96.85,1.81.61.91,1.11,1.39,1.51,1.43h1.91s.11-.05.2-.16c.09-.11.16-.16.21-.16h.91c.22,0,.32.22.32.66v.25ZM76.43,9.15c-.15-.72-.43-1.56-.84-2.53-.42-1.01-.73-1.53-.93-1.55h-1.23v6.04c0,.09.02.17.1.24s.15.1.23.1c.41,0,.94-.3,1.57-.9.57-.54.94-1.01,1.1-1.4Z"/>
    <path class="st0" d="M84.72,13.38c-.22.07-.78.38-1.69.93-.79.49-1.33.74-1.62.74-.04,0-.18,0-.42.01-.24,0-.45.01-.62.01-1.02,0-1.53-.23-1.53-.7v-.57c0-.18.11-.3.34-.35.44-.1.66-.15.65-.15.12,0,.19.05.21.15.02.1.15.18.38.25.19.06.37.09.54.09.36,0,.73-.14,1.12-.41.55-.38.91-.61,1.07-.68,0-.78-.22-1.7-.66-2.76-.37-.85-.74-1.7-1.1-2.56-.07-.2-.15-.29-.25-.29s-.2.11-.31.32c-.36.99-.73,1.98-1.09,2.98-.72,1.94-1.15,3.04-1.31,3.31-.05.09-.19.14-.41.15-.1,0-.23-.06-.4-.21-.17-.15-.25-.3-.25-.45,0-.16.09-.29.26-.4.38-.22.99-1.61,1.84-4.16.72-2.21,1.18-3.81,1.35-4.78.03-.16.14-.24.34-.24.15,0,.28.05.4.15s.18.24.18.42c-.01.61.43,2.18,1.31,4.72.89,2.54,1.44,3.84,1.67,3.88.16.04.24.12.24.25,0,.17-.08.27-.24.32ZM82.08,11.4c-.3.18-.51.32-.6.41-.19.16-.32.35-.4.58-.03.1-.12.15-.28.15-.12,0-.22-.05-.29-.15-.14-.16-.21-.33-.21-.51,0-.16.07-.3.21-.39.28-.2.5-.42.66-.66.08-.12.21-.18.4-.18s.36.06.51.18c.07.06.1.16.1.29,0,.15-.03.24-.1.28Z"/>
    <path class="st0" d="M89.73,3.35h.57c.25,0,.36.11.34.34-.3,2.46-.46,4.46-.46,6.01,0,1.46.14,2.86.43,4.2.02.04.03.09.03.16,0,.12-.04.24-.13.37-.08.13-.16.2-.24.2h-.57c-.23,0-.34-.11-.34-.34V5.92c-.5,0-1.19.47-2.06,1.4-.39.42-.72.87-1,1.34-.27.47-.41,1.34-.41,2.62,0,.37.02.88.05,1.53.03.61.05,1,.04,1.16,0,.23-.11.34-.33.34h-.58c-.21,0-.31-.22-.31-.66,0-.17.05-.4.15-.71s.15-.51.15-.62V4.23c0-.22.1-.32.31-.32h.27c.22,0,.33.11.33.32v2.43c.4,0,.82-.23,1.24-.68.39-.43.79-.87,1.18-1.31.06-.06.26-.34.59-.85.21-.31.45-.47.74-.47Z"/>
    <path class="st0" d="M95.17,3.79c.37.03.56.26.56.69,0,.35-.11.62-.34.79-.26.19-.52.11-.81-.24-.14-.19-.33-.28-.59-.28-.31,0-.58.09-.81.28-.1.07-.17.18-.21.34-.07.23-.11.36-.13.4-.13.26-.33,1.29-.6,3.07-.26,1.7-.38,2.74-.38,3.13,0,.28.25.58.78.9.58.34,1.21.51,1.91.51.45,0,.87-.05,1.28-.15.73-.2,1.1-.52,1.1-.97,0-.08,0-.16-.03-.25-.04-.16-.21-.62-.52-1.4-.35-.86-.57-1.35-.67-1.45s-.15-.2-.15-.3c0-.15.09-.26.28-.35.19-.09.41-.12.66-.1.18.02.31.14.4.36.09.22.18.43.26.64.75,1.29,1.08,2.37.98,3.22,0,.33-.1.61-.29.82-.12.14-.35.3-.69.5-.38.23-.72.34-1,.34.03,0-.13,0-.48.02-.35.01-.67.02-.98.02-1.22,0-2.02-.13-2.43-.38-1.11-.69-1.66-1.35-1.66-1.98,0-.28.24-1.57.73-3.85.5-2.32.81-3.55.93-3.67.44-.52.92-.78,1.43-.78.03,0,.52.04,1.47.12ZM94.92,6.77c.42-.2.79-.29,1.1-.29s.5.09.54.28c.03.2-.12.44-.46.72-.28.18-.72.49-1.29.96-.25.24-.4.45-.47.65-.07.2-.13.39-.18.59-.24.85-.52,1.28-.82,1.28-.13,0-.24-.08-.32-.25-.09-.17-.13-.37-.13-.6,0-.69.24-1.31.73-1.88,0,0,.2-.28.57-.82.18-.27.42-.48.72-.62Z"/>
    <path class="st0" d="M105.02,11.66c-.16.16-.35.39-.57.71-.22.28-.42.5-.6.68-.32.3-.95.73-1.87,1.27-.49,0-.83-.03-1.01-.09-.26-.08-.53-.27-.82-.57-.12-.14-.24-.27-.35-.4-.12-.13-.27-.24-.46-.32-.14-.07-.36-.25-.66-.53-.27-.26-.45-.39-.51-.41,0-.29.18-.69.53-1.19.49-.68.75-1.05.79-1.12.32-.64.49-1.04.49-1.21,0-.3-.37-.46-1.1-.46-.12-.05-.18-.13-.18-.24,0-.12.12-.39.37-.81.33-.54.57-.99.71-1.34.25-.62.38-1.23.38-1.84l.03-.22s.22-.08.5-.09c.25,0,.82-.01,1.7-.01.52,0,.88.06,1.08.15.2.09.28.26.24.51v.57c0,.23-.63.34-1.9.34-.05.1-.25.32-.6.68-.28.29-.43.53-.43.72,0,.13.03.24.1.32.1.13.16.22.18.28l2.32-.26c.44-.06.66.08.66.41,0,.21-.09.41-.26.61-.17.2-.36.3-.57.29-.27,0-.59.03-.93.13-.35.09-.65.14-.9.14-.2.24-.39.47-.59.71-.26.31-.45.65-.57,1.02-.18.49-.27,1.11-.28,1.86,0,.26.13.46.38.62.22.12.44.23.66.34.13.09.26.13.4.13.15,0,.48-.09,1-.28.21-.07.44-.29.69-.67.41-.59.65-.92.72-.99.15-.18.38-.27.69-.27s.52.07.66.22c.16.18.12.38-.12.62Z"/>
    <path class="st0" d="M116.67,5.76c.02.09,0,.17-.08.24-.07.07-.16.1-.26.1h-.28c-.1,0-.2-.03-.31-.1-.11-.07-.16-.16-.16-.28v-.28c0-.29-.25-.44-.76-.44-.44,0-1.05-.04-1.84-.11-.78-.07-1.37-.11-1.75-.11-.47,0-.71.14-.71.41v1.75c0,.32-.11.49-.32.49h-.25c-.23,0-.34-.22-.34-.66v-2.57c0-.22.11-.32.34-.32l4.94.18c.18,0,.29-.04.34-.16.01-.04.02-.16.02-.37s.13-.31.4-.31h.52c.13,0,.21.07.24.22.03.15.06.29.09.42s.04.39.04.77c0,.34.05.72.15,1.15ZM114.83,13.97c0,.23-.11.34-.34.34h-3.56c-.26,0-.4-.16-.4-.49,0-.28.13-.43.4-.43.71,0,1.29-.05,1.74-.16.46-.11.84-.16,1.15-.16.26,0,.49.05.68.15.21.13.32.3.32.51v.24ZM113.51,12.31c0,.22-.11.32-.34.32h-.25c-.22,0-.32-.11-.32-.32v-6.47c0-.23.11-.34.32-.34h.25c.23,0,.34.11.34.34v6.47Z"/>
    <path class="st0" d="M126.18,15.3c0,.22-.11.32-.32.32h-3.89c-.32,0-.83-.45-1.53-1.34-.62-.78-1.02-1.41-1.2-1.87l-1.32.31c0,.78,0,1.14,0,1.07-.03.35-.16.52-.38.52h-.36c-.21,0-.32-.11-.32-.34,0-1.17-.03-2.58-.1-4.25-.06-1.67-.09-3.66-.09-5.97h3.23c.23,0,.34.11.34.34,0,.77.28,1.68.82,2.71.55,1.03.82,1.92.82,2.65,0,.22-.27.57-.81,1.05s-.81.81-.81.98c0,.35.28.96.85,1.81.61.91,1.11,1.39,1.51,1.43h1.91s.1-.05.2-.16c.09-.11.16-.16.21-.16h.91c.21,0,.32.22.32.66v.25ZM120.65,9.15c-.15-.72-.43-1.56-.84-2.53-.42-1.01-.73-1.53-.93-1.55h-1.24v6.04c-.01.09.02.17.1.24s.15.1.23.1c.41,0,.94-.3,1.57-.9.57-.54.94-1.01,1.1-1.4Z"/>
    <path class="st0" d="M123.15,4.39c-.05,3.42-.05,6.22,0,8.41.01.11.06.22.15.33.09.11.13.29.13.52,0,.44-.11.66-.34.66h-.15c-.08,0-.14-.01-.19-.01-.26,0-.42-.03-.49-.1-.07-.06-.1-.25-.09-.57.06-3.31.09-5.13.09-5.45,0-1.52-.04-2.51-.12-2.97-.02-.16-.08-.4-.18-.74-.09-.27-.13-.46-.12-.54.03-.28.28-.43.76-.43.36,0,.54.29.53.88Z"/>
    <path class="st0" d="M128.72,9.3c-.18.56-.86,1.14-2.06,1.73-.68.31-1.35.63-2.03.95-.1.09-.14.25-.13.49,0,.49-.03,1.06-.12,1.7,0,.08-.09.12-.24.13-.13,0-.25-.01-.38-.01-.22,0-.34-.11-.34-.34V4.75c0-.88.22-1.32.66-1.32.12,0,.22.06.3.17.08.11.19.17.33.17h2.26c.23,0,.34.22.34.66v.25c0,.06-.06.12-.17.18-.11.06-.17.12-.17.19,0,.44.24.96.72,1.54.58.72.91,1.21,1.01,1.48.15.38.15.79,0,1.23ZM127.65,8.98c.14-.21.21-.39.21-.54s-.07-.28-.21-.37c-.2-.14-.59-.74-1.18-1.81-.57-1-.9-1.5-.98-1.51h-.44c-.33,0-.53.09-.6.25-.01.04-.01.18-.01.41v5.22c.58,0,1.25-.23,2.01-.69.63-.38,1.03-.7,1.21-.96Z"/>
  </g>
  <g id="Zwjp01">
    <g>
      <path class="st1" d="M142.78.8s-.09.04-.07.11l.18.1c.25.21.63.49.56.86-.02.04-.18.03-.22.03-.1,0-.18-.09-.19.07-.04.35.02.66-.12,1.01-.03.07-.11.21-.2.2-.05,0-.1-.06-.14,0-.03.04-.08.2-.11.27-.03.07-.17.32-.24.33-.08.01-.17-.23-.25-.18-.07.12-.12.26-.18.38-.12.22-.32.44-.51.6s-.41.26-.61.4c-.03.07.14.26.19.32.13.13.31.25.45.37.04.03.16.15.16.2-.06.19-.26.17-.37.3.02.2.52.47.22.64-.08.04-.46.13-.47.18,0,.01,0,.03,0,.04,0,0,.07.15.08.16,0,.01.04.02.05.03.2.21.43.16.69.19.75.07,1.84.14,2.49.49.93.5.88,1.76-.1,2.17-.57.24-1.49.07-2.08-.09-.24-.06-.47-.16-.71-.22-.06-.01-.25-.05-.29-.02-.12.21-.17.45-.14.7,0,.07.06.2.08.27.26.76.64,1.44,1.1,2.08.32.44.45.67,1.06.64.37-.02,1.16-.35,1.47-.16.1.06.29.31.34.42.13.29.1.64-.08.9-.43.63-1.5.47-2.02,1.08-.34.4-.63,1.01-1.27.9-.53-.09-.82-1.13-1.06-1.55-.03-.05-.17-.28-.21-.28-.05,0-.14.15-.21.18-.04.02-.11.04-.15,0-.08-.08-.14-.65-.15-.78,0-.05.02-.24-.04-.24-.1,0-.26.3-.35.03-.05-.17-.06-.39-.12-.58-.01-.05-.11-.32-.16-.31-.07.07-.1.18-.13.27-.18.5-.3,1.18-.7,1.56-.06.05-.12.12-.21.1-.05-.16,0-.32.04-.47,0-.01-.04-.01-.05,0-.02,0-.24.34-.28.39-.16.16-.33.33-.56.37-.25.05-.23-.07-.16-.27-.2-.01-.46.26-.4.46l.64.12c.31.06.78.31.83.66.15,1.06-1.25.77-1.87.74-.47-.02-1.1.15-1.53-.03-.54-.24-.29-1.1-.27-1.55,0-.08,0-.17,0-.25-.08-.01-.15.08-.21.09-.19.04-.24-.17-.17-.31.15-.33.41-.6.64-.88.01-.09-.08.01-.12.02-.02,0-.12.01-.13,0-.04-.12,0-.24.07-.34.27-.47,1.09-.73.7-1.41-.03-.05-.11-.16-.18-.14-.06.02-.1.14-.13.19-.2.26-.33-.14-.34-.31-.02-.31.05-.65.08-.96l-.03-.02c-.06.04-.08.12-.14.15-.18.09-.2-.01-.21-.17-.05-.6.35-1.38.62-1.9.23-.44.49-.85.69-1.3.02-.08-.11-.17-.17-.21-.55-.32-.95.08-1.17.56-.33.72-.3,1.36-.95,1.92s-1.76.63-2.43.08c-.63-.53-.39-1.56.39-1.76.26-.07.81-.02.99-.18.12-.11.11-.33.06-.47,0-.02-.06-.14-.07-.14-.03-.02-.18.11-.23.13-.14.06-.21.06-.23-.1-.06-.41.12-.83.21-1.22,0-.06-.1-.06-.15-.08-.06-.03-.05-.08-.05-.14.05-.53.85-.83,1.24-1.08.13-.08,0-.16-.04-.25-.07-.13-.11-.34.1-.32.12.01.3.1.42.14.29.09.59.13.89.16.08-.01-.04-.15-.05-.16-.07-.13-.21-.38-.02-.48.1-.05.22.06.29.12.16.12.32.26.5.37.07.04.25.14.33.15.05.01.05-.04.05-.08,0-.18-.07-.46-.05-.63.02-.15.19-.11.16-.21,0-.01-.14-.22-.15-.22-.06-.03-.13.08-.21.07s-.15-.13-.18-.19c-.1-.27-.1-.58-.11-.86l-.04-.03c-.16.19-.29.05-.3-.15-.03-.38.18-.71.34-1.04,0-.1-.13-.05-.16-.09-.06-.16.05-.28.16-.38.54-.46,1.4-.45,2.02-.16.25.12.38.4.66.42s.65-.07.94-.09c.49-.03.93.01,1.4.13.15.04.23.08.37,0,.19-.11.4-.32.6-.45.47-.31,1.24-.58,1.78-.34.1.04.13.13.06.21ZM137.99,5.98c.72.84,1.71-.05,2.02-.79.1-.23.04-.35.29-.5.26-.16.5-.24.74-.45.29-.26.39-.52.58-.85.22-.39.38-.36.67-.61.53-.45.46-1.49-.32-1.6-.6-.09-.88.06-1.26.5-.05.05-.18.28-.24.28-.26-.05-.52-.17-.78-.22-.47-.09-1.08-.07-1.55,0-.19.02-.46.12-.65.09-.17-.03-.37-.28-.5-.38-.91-.7-2.07.29-1.52,1.31.19.36.55.59.86.83.05.17.09.34.21.48.18.21.46.33.68.5.45.34.42,1,.78,1.42ZM136.99,4.92c-.06-.08-.26-.24-.36-.25-.07-.01-.24-.02-.24.08,0,.02.03.04.03.08.02.17-.17.28-.27.38-.04.04-.21.2-.22.23,0,.02,0,.03.01.05.11,0,.38.07.4.2.02.14-.23.35-.2.51.04.06.71-.02.85.11.09.08.02.23-.03.31-.09.18-.25.37-.37.55-.04.05.03.1.08.11.07.02.16,0,.23.02.13.02.45.09.49.24.02.11-.08.37-.09.51,0,.02,0,.06.02.06.02,0,.2-.09.24-.1.15-.07.26-.23.39-.02.02.04.07.14.09.18.07.15.09.32.18.45.07.02.21-.52.39-.48.2.26.28.58.43.86,0,.02,0,.04.03.03.16-.3-.05-.89.24-1.13.05-.04.15,0,.2.04.08.05.35.39.4.39.02,0,.03,0,.04-.02-.03-.3-.18-.6-.16-.9.01-.04.07-.11.11-.12.09-.04.55-.02.57-.05.03-.13-.19-.32-.18-.42.02-.15.34-.21.45-.28-.06-.17-.31-.28-.29-.48.01-.15.2-.17.31-.22,0-.01,0-.02,0-.04-.01-.04-.19-.2-.23-.23-.05-.04-.17-.12-.23-.09-.04.02-.23.43-.28.5-.63,1.06-1.99.92-2.57-.11-.16-.28-.27-.71-.45-.95ZM135.08,5.43c-.79,0-1.97-.04-2.33.83-.27.66.06,1.5-.02,2.19-.02.14-.1.27-.24.32-.46.14-1.24-.09-1.48.45-.08.18-.04.34.04.51s.28.28.47.33c1,.25,1.69-.14,2.02-1.09.24-.68.32-1.62,1.15-1.84.43-.11.74.06,1.12.22.05,0,.08-.03.1-.06.1-.1.24-.29.32-.41.02-.03.13-.19.1-.21-.27,0-.54.07-.81.05-.18-.02-.23-.14-.15-.29.04-.09.3-.36.27-.44-.02-.06-.2-.04-.25-.04-.08,0-.39-.04-.43-.1-.03-.03-.02-.15,0-.2.02-.08.15-.11.12-.23ZM138.42,9.68s-.02.09-.08.1-.14-.03-.18-.07c-.19-.22-.32-.76-.45-1.04-.03-.06-.07-.14-.12-.19-.05-.02-.34.24-.4.28-.08.05-.41.22-.47.13-.11-.15.12-.74.13-.94,0-.06.02-.18-.05-.19-.12.03-.56-.06-.64,0-.56.96-1.3,2.02-1.03,3.19.16.73.72,1.3.54,2.09-.2.88-.77,1.76-.82,2.68-.02.34-.04.83.41.86.09,0,.16-.02.23-.02.33,0,.68-.01,1.01,0,.29.01.59.07.88.05.31-.03.4-.37.15-.53-.34-.21-1-.12-1.27-.4-.21-.23.02-.54.19-.73.68-.75,1.65-1.14,2.01-2.17.24-.68.13-1.17.1-1.85,0-.05,0-.35,0-.36.02-.03.1-.01.13,0,.06.05.21.32.25.41.05.11.11.25.14.37.06.2.06.42.12.62,0,.02.02.03.03.05.15-.1.26-.25.37-.39.44-.59.92-1.47.98-2.22,0-.04,0-.17-.02-.2-.03-.03-.36-.14-.43-.17-.09-.04-.19-.09-.28-.14-.06-.03-.27-.18-.32-.14-.03.09,0,.21-.01.31-.01.28-.02.7-.08.97-.02.07-.04.08-.11.08-.3-.02-.5-.58-.64-.8-.05-.08-.11-.23-.17-.08s-.02.27-.1.43ZM144.14,9.53c.25-.26.34-.61.14-.93-.45-.71-2.18-.82-2.95-.84-.06,0-.39,0-.4.02,0,.21.07.41.1.61.02.15.03.31.05.46,0,.11,0,.27.02.37,0,.04.07.08.11.11.49.29,1.94.47,2.51.41.19-.02.31-.08.43-.21ZM142,13.58c-.3-.31-.62-.88-.83-1.26-.19-.34-.38-.86-.61-1.15-.02-.02-.06-.08-.09-.06-.03.01-.25.43-.3.49-.16.25-.36.47-.55.71-.06.08-.11.17-.19.25v.04c.28.37.61.71.89,1.1.22.3.42.63.57.97s.37,1.19.61,1.38c.19.16.37.04.52-.11.32-.3.49-.71.9-.94s1.49-.3,1.62-.82c.05-.2-.12-.48-.33-.51-.28-.04-.7.17-.98.24-.47.12-.91.02-1.25-.33Z"/>
      <path class="st1" d="M137.68,4.35c.16-.05.5.14.68.15s.27-.13.4-.14c.19-.02.36.15.56.17.24.02.38-.13.6-.08.06.08-.15.33-.2.41-.19.32-.4,1-.82,1.05-.5.05-.82-.28-.98-.72-.04-.12-.07-.25-.11-.37-.06-.14-.15-.27-.18-.42,0-.02.04-.05.05-.05Z"/>
      <path class="st1" d="M140.77,2.21c-.09-.1-.03-.16.03-.26.12-.21.49-.52.73-.55.5-.05.96.37.79.88-.06.19-.26.4-.41.51-.22.16-.36.19-.57,0-.17-.15-.41-.41-.57-.58Z"/>
      <path class="st1" d="M136.86,2.31c-.19.2-.23.25-.36.5-.11.22-.15.35-.42.2-.44-.25-.74-.81-.38-1.26.29-.37,1.09-.15,1.3.19.06.09.03.2-.04.28-.03.04-.07.06-.1.09Z"/>
      <path class="st1" d="M138.8,3.38c.27-.02.61.22.64.5.02.23-.16.32-.36.3-.1-.01-.18-.07-.29-.08-.21-.02-.46.08-.53-.18-.08-.28.31-.53.55-.54Z"/>
      <path class="st1" d="M137.68,2.94s.16-.14.21-.15c.4-.1.41.52.08.57-.14.02-.26.02-.33-.11-.05-.1-.03-.21.03-.31Z"/>
      <path class="st1" d="M139.61,3.3s-.04-.02-.06-.06c-.09-.15-.07-.31.08-.4.34-.21.6.44.3.57-.12.05-.24-.04-.32-.11Z"/>
      <path class="st1" d="M143.09,8.27c.42-.03,1.03-.01.99.56-.06.83-.86.7-1.44.5-.18-.06-.9-.35-.97-.5s-.06-.28.08-.37c.19-.13.55-.09.78-.12.19-.02.37-.06.56-.07Z"/>
    </g>
  </g>
</svg>