<?xml version="1.0" encoding="UTF-8"?>
<svg id="Layer_1" xmlns="http://www.w3.org/2000/svg" version="1.1" viewBox="0 0 123.96 23.39">
  <!-- Generator: Adobe Illustrator 29.4.0, SVG Export Plug-In . SVG Version: 2.1.0 Build 152)  -->
  <defs>
    <style>
      .st0 {
        fill: #912628;
      }
    </style>
  </defs>
  <g>
    <path class="st0" d="M16.28,20.37h-5.19v-2.38c0-.72-.25-1.33-.76-1.84-.51-.51-1.12-.76-1.83-.76-2.15,0-3.98-.76-5.5-2.28-1.52-1.52-2.28-3.36-2.28-5.51v-2.38h5.19v2.38c0,.72.25,1.33.76,1.84.51.51,1.12.76,1.83.76,2.15,0,3.98.76,5.5,2.28,1.52,1.52,2.28,3.36,2.28,5.51v2.38Z"/>
    <path class="st0" d="M31.13,20.4h-7.37c-2.16,0-3.99-.76-5.51-2.28-1.52-1.52-2.28-3.36-2.28-5.5v-7.38h5.19v7.38c0,.71.25,1.32.76,1.83s1.12.76,1.84.76h7.37v5.19Z"/>
    <path class="st0" d="M32.59,3.46c0,.29-.11.54-.32.75s-.47.31-.76.31-.53-.1-.74-.31c-.21-.21-.31-.46-.31-.75s.11-.54.31-.75c.21-.21.46-.32.74-.32s.55.11.76.32.32.46.32.75ZM36.7,20.4h-5.19V5.23h5.19v15.16Z"/>
    <path class="st0" d="M51.59,12.07c0,2-.71,3.72-2.12,5.13-1.41,1.42-3.12,2.13-5.13,2.13h-2.07v1.07h-5.19v-8.33c0-2,.71-3.71,2.13-5.13,1.42-1.41,3.13-2.12,5.13-2.12s3.71.71,5.13,2.12c1.41,1.41,2.12,3.12,2.12,5.13ZM47.47,12.61c0-.72-.25-1.33-.76-1.84-.51-.51-1.12-.76-1.83-.76s-1.33.25-1.84.77c-.51.51-.77,1.12-.77,1.84s.25,1.32.76,1.83,1.12.76,1.84.76,1.32-.25,1.83-.76c.51-.51.76-1.12.76-1.83Z"/>
    <path class="st0" d="M67.75,20.4h-7.34l-8.44-8.43,6.75-6.74h7.34l-6.75,6.74,8.44,8.43Z"/>
    <path class="st0" d="M82.2,20.4h-5.19v-7.37c0-.72-.25-1.33-.76-1.84-.51-.51-1.12-.76-1.83-.76s-1.32.25-1.83.76c-.51.51-.76,1.12-.76,1.84v7.37h-5.19V5.23h7.78c2.15,0,3.98.76,5.5,2.28s2.28,3.36,2.28,5.51v7.37Z"/>
    <path class="st0" d="M112.81,20.4h-4.99c-2.16,0-3.99-.76-5.51-2.28-1.52-1.52-2.28-3.36-2.28-5.5v-2.19h-2.36l7.56-7.57v2.38h7.59v5.19h-7.59v2.19c0,.71.25,1.32.76,1.83.51.51,1.12.76,1.84.76h4.99v5.19Z"/>
    <path class="st0" d="M115.34,19.33c0,.29-.1.54-.31.75s-.46.32-.75.32-.55-.11-.76-.32-.32-.46-.32-.75.11-.54.32-.75.47-.31.76-.31.54.1.75.31.31.46.31.75ZM119.7,2.39l-.71,15.16h-4.72l-.71-15.16h6.15Z"/>
  </g>
  <path class="st0" d="M89.58,5.3c-4.17,0-7.55,3.38-7.55,7.55s3.38,7.55,7.55,7.55,7.55-3.38,7.55-7.55-3.38-7.55-7.55-7.55ZM91.83,12.63l-1.81,1.22,1.27.05v.03s-.02,0-.03,0c-.61.33-1.22.65-1.83.98v.03s.61.16.61.16v.02s-1.34.56-1.34.56c0,.02,0,.02.02.03.1.07.24.11.35.17v.02s-1.87.73-1.87.73l.86-1.84-.85.04s-.05,0-.08,0c-.01,0-.03,0-.02-.01l1.19-1.13h-.39c-.22,0-.48.05-.7.03-.01,0-.03,0-.02-.01l1.82-1.43-1.27.07,2.05-1.3-1.01-.19v-.02s1.56-.78,1.56-.78c0-.02,0-.01-.01-.02-.09-.05-.22-.08-.32-.12v-.03s1.68-.82,1.68-.82l-.55,1.17.83-.11h.02s-1.27,1.2-1.27,1.2l1.32.13-1.63,1.19h1.42Z"/>
</svg>