<?xml version="1.0" encoding="utf-8"?>
<!-- Generator: Adobe Illustrator 28.2.0, SVG Export Plug-In . SVG Version: 6.00 Build 0)  -->
<svg version="1.1" id="Layer_1" xmlns="http://www.w3.org/2000/svg" xmlns:xlink="http://www.w3.org/1999/xlink" x="0px" y="0px"
	 viewBox="0 0 126 39.6" style="enable-background:new 0 0 126 39.6;" xml:space="preserve">
<style type="text/css">
	.st0{fill:#8D2B1C;}
</style>
<g>
	<path class="st0" d="M9.19,16.47h-6.8c-0.63,0-1.14-0.51-1.14-1.14V2.48c0-0.62,0.51-1.12,1.14-1.12h6.8
		c0.63,0,1.12,0.49,1.12,1.12v12.85C10.31,15.96,9.82,16.47,9.19,16.47z M8.81,6.65c0-0.63-0.51-1.14-1.14-1.14H3.91
		c-0.63,0-1.14,0.51-1.14,1.14v7.16c0,0.64,0.51,1.14,1.14,1.14h3.77c0.63,0,1.14-0.49,1.14-1.14V6.65z"/>
	<path class="st0" d="M19.66,16.47h-7.18c-0.42,0-0.76-0.34-0.76-0.76c0-0.42,0.34-0.76,0.76-0.76h3.01c0.62,0,1.14-0.49,1.14-1.12
		v-3.43c0-0.63-0.51-1.12-1.14-1.12l-2.63-0.02c-0.63,0-1.14-0.49-1.14-1.12V2.48c0-0.62,0.51-1.12,1.14-1.12h5.74
		c0.42,0,0.76,0.32,0.76,0.74s-0.34,0.76-0.76,0.76h-4.25c-0.63,0-1.14,0.51-1.14,1.14v2.63c0,0.63,0.51,1.14,1.14,1.14h5.31
		c0.63,0,1.12,0.51,1.12,1.14v6.42C20.78,15.96,20.28,16.47,19.66,16.47z"/>
	<path class="st0" d="M30.12,5.52h-1.52c-0.62,0-1.14,0.49-1.14,1.12v9.08c0,0.42-0.34,0.76-0.76,0.76c0,0-0.76-0.34-0.76-0.76V6.63
		c0-0.62-0.49-1.12-1.12-1.12h-1.52c-0.63,0-1.14-0.51-1.14-1.14v-1.9c0-0.62,0.51-1.12,1.14-1.12h6.8c0.63,0,1.12,0.49,1.12,1.12
		v1.9C31.24,5,30.75,5.52,30.12,5.52z"/>
	<path class="st0" d="M40.98,16.47h-7.2c-0.63,0-1.14-0.51-1.14-1.14V2.45c0-0.63,0.51-1.14,1.14-1.14h7.2
		c0.42,0,0.76,0.34,0.76,0.76c0,0.42-0.34,0.76-0.76,0.76h-3.03c-0.62,0-1.14,0.51-1.14,1.14v2.65c0,0.62,0.51,1.14,1.14,1.14h3.03
		c0.42,0,0.76,0.34,0.76,0.76s-0.34,0.76-0.76,0.76H35.3c-0.63,0-1.14,0.51-1.14,1.14v3.41c0,0.63,0.51,1.14,1.14,1.14h5.69
		c0.42,0,0.76,0.34,0.76,0.76C41.74,16.13,41.4,16.47,40.98,16.47z"/>
	<path class="st0" d="M52.21,16.47c0,0-0.76-0.34-0.76-0.76v-5.29c0-0.63-0.49-1.14-1.12-1.14h-2.27c-0.62,0-1.14,0.51-1.14,1.14
		v4.91c0,0.63-0.49,1.14-1.12,1.14h-1.52c-0.63,0-1.14-0.51-1.14-1.14V2.5c0-0.63,0.51-1.14,1.14-1.14h5.67
		c0.62,0,1.12,0.51,1.12,1.14v4.06c0,0.3,0.13,0.59,0.34,0.8l1.21,1.23c0.21,0.21,0.34,0.49,0.34,0.8v6.33
		C52.97,16.13,52.62,16.47,52.21,16.47z M49.57,4c0-0.62-0.51-1.12-1.14-1.12H45.8c-0.63,0-1.14,0.49-1.14,1.12v2.65
		c0,0.63,0.51,1.14,1.14,1.14h2.63c0.63,0,1.14-0.51,1.14-1.14V4z"/>
	<path class="st0" d="M59.87,16.47h-4.45c-0.63,0-1.14-0.51-1.14-1.14v-1.9c0-0.63,0.51-1.14,1.14-1.14h0.32
		c0.62,0,1.14-0.51,1.14-1.14v-9.1c0-0.42,0.34-0.76,0.76-0.76c0,0,0.76,0.34,0.76,0.76v9.1c0,0.63,0.51,1.14,1.14,1.14h0.34
		c0.63,0,1.14,0.51,1.14,1.14v1.9C61,15.96,60.49,16.47,59.87,16.47z"/>
	<path class="st0" d="M71.89,16.47h-1.52c-0.62,0-1.14-0.51-1.14-1.14v-1.9c0-0.63,1.14-1.14,1.14-1.14c0.63,0,1.14-0.51,1.14-1.14
		v-1.14c0-0.42-0.34-0.76-0.76-0.76h-4.47c-0.28,0-0.51,0.15-0.66,0.38c0,0-0.02,0.04-1.23,1.84c-0.04,0.08-0.06,0.17-0.06,0.25
		c0,0.32,0.26,0.57,0.57,0.57h2.25c0.63,0,1.14,0.51,1.14,1.14v1.9c0,0.63-0.51,1.14-1.14,1.14h-3.6c-0.63,0-1.14-0.51-1.14-1.14
		v-2.98c0-0.3,0.06-0.59,0.15-0.85c6.33-9.63,6.39-9.7,6.39-9.7c0.19-0.3,0.53-0.49,0.93-0.49h2.01c0.62,0,1.14,0.51,1.14,1.14
		v12.89C73.02,15.96,72.51,16.47,71.89,16.47z M71.51,3.6c0-0.42-0.34-0.76-0.76-0.76h-0.28c-0.26,0-0.49,0.13-0.62,0.34l-2.46,3.73
		C67.34,7,67.32,7.09,67.32,7.18c0,0.3,0.27,0.57,0.57,0.57h2.48c0.64,0,1.14-0.51,1.14-1.14V3.6z"/>
	<path class="st0" d="M9.19,34.47H2.01c-0.42,0-0.76-0.34-0.76-0.76s0.34-0.76,0.76-0.76h3.01c0.62,0,1.14-0.49,1.14-1.12v-3.43
		c0-0.62-0.51-1.12-1.14-1.12l-2.63-0.02c-0.63,0-1.14-0.49-1.14-1.12v-5.67c0-0.62,0.51-1.12,1.14-1.12h5.74
		c0.42,0,0.76,0.32,0.76,0.74s-0.34,0.76-0.76,0.76H3.89c-0.63,0-1.14,0.51-1.14,1.14v2.63c0,0.63,0.51,1.14,1.14,1.14h5.31
		c0.63,0,1.12,0.51,1.12,1.14v6.42C10.31,33.96,9.82,34.47,9.19,34.47z"/>
	<path class="st0" d="M20.06,34.47h-7.2c-0.63,0-1.14-0.51-1.14-1.14V20.45c0-0.63,0.51-1.14,1.14-1.14h7.2
		c0.42,0,0.76,0.34,0.76,0.76v2.65c0,0.42-0.34,0.76-0.76,0.76h-5.69c-0.63,0-1.14,0.51-1.14,1.14v7.2c0,0.63,0.51,1.14,1.14,1.14
		h5.69c0.42,0,0.76,0.34,0.76,0.76S20.47,34.47,20.06,34.47z"/>
	<path class="st0" d="M30.56,34.47c-0.42,0-0.76-0.34-0.76-0.76v-2.27c0-0.62-0.51-1.14-1.14-1.14h-3.79
		c-0.63,0-1.14,0.51-1.14,1.14v2.27c0,0.42-0.76,0.76-0.76,0.76c-0.42,0-0.76-0.34-0.76-0.76V20.07c0-0.42,0.76-0.76,0.76-0.76
		c0.42,0,0.76,0.34,0.76,0.76v4.51c0,0.62,0.51,1.14,1.14,1.14h3.79c0.63,0,1.14-0.51,1.14-1.14v-4.51c0-0.42,0.76-0.76,0.76-0.76
		c0.42,0,0.76,0.34,0.76,0.76v13.65C31.32,34.13,30.56,34.47,30.56,34.47z"/>
	<path class="st0" d="M40.66,34.47h-6.8c-0.63,0-1.14-0.51-1.14-1.14V20.48c0-0.62,0.51-1.12,1.14-1.12h6.8
		c0.63,0,1.12,0.49,1.12,1.12v12.85C41.78,33.96,41.29,34.47,40.66,34.47z M40.28,22c0-0.62-0.51-1.14-1.14-1.14h-3.77
		c-0.63,0-1.14,0.51-1.14,1.14v7.18c0,0.62,0.51,1.14,1.14,1.14h3.77c0.63,0,1.14-0.51,1.14-1.14V22z"/>
	<path class="st0" d="M51.13,23.52h-1.52c-0.62,0-1.14,0.49-1.14,1.12v9.08c0,0.42-0.34,0.76-0.76,0.76c0,0-0.76-0.34-0.76-0.76
		v-9.08c0-0.62-0.49-1.12-1.12-1.12h-1.52c-0.63,0-1.14-0.51-1.14-1.14v-1.9c0-0.62,0.51-1.12,1.14-1.12h6.8
		c0.63,0,1.12,0.49,1.12,1.12v1.9C52.25,23,51.75,23.52,51.13,23.52z"/>
	<path class="st0" d="M61.59,23.52h-1.52c-0.62,0-1.14,0.49-1.14,1.12v9.08c0,0.42-0.34,0.76-0.76,0.76c0,0-0.76-0.34-0.76-0.76
		v-9.08c0-0.62-0.49-1.12-1.12-1.12h-1.52c-0.63,0-1.14-0.51-1.14-1.14v-1.9c0-0.62,0.51-1.12,1.14-1.12h6.8
		c0.63,0,1.12,0.49,1.12,1.12v1.9C62.71,23,62.22,23.52,61.59,23.52z"/>
	<path class="st0" d="M72.45,34.47h-7.2c-0.62,0-1.14-0.51-1.14-1.14V20.45c0-0.63,0.51-1.14,1.14-1.14h7.2
		c0.42,0,0.76,0.34,0.76,0.76c0,0.42-0.34,0.76-0.76,0.76h-3.03c-0.62,0-1.14,0.51-1.14,1.14v2.65c0,0.62,0.51,1.14,1.14,1.14h3.03
		c0.42,0,0.76,0.34,0.76,0.76s-0.34,0.76-0.76,0.76h-5.68c-0.63,0-1.14,0.51-1.14,1.14v3.41c0,0.63,0.51,1.14,1.14,1.14h5.68
		c0.42,0,0.76,0.34,0.76,0.76S72.87,34.47,72.45,34.47z"/>
	<path class="st0" d="M84.06,34.47h-2.33c-0.59,0-1.04-0.44-1.12-1l-1.31-9.32c-0.06-0.36-0.38-0.61-0.74-0.61h-1.67
		c-0.42,0-0.76,0.32-0.76,0.74v9.44c0,0.42-0.34,0.76-0.76,0.76c-0.42,0-0.76-0.34-0.76-0.76V20.5c0-0.64,0.51-1.14,1.14-1.14h3.41
		c0.55,0,1.04,0.4,1.12,0.93l1.67,12c0.06,0.38,0.38,0.66,0.76,0.66h0.21c0.44,0,0.76-0.34,0.76-0.76V20.12
		c0-0.42,0.34-0.76,0.76-0.76s0.76,0.34,0.76,0.76v13.21C85.19,33.96,84.68,34.47,84.06,34.47z"/>
	<path class="st0" d="M93.5,27.27h-1.59c-0.63,0-1.14,0.49-1.14,1.14v4.93c0,0.62-0.51,1.14-1.14,1.14h-1.9
		c-0.62,0-1.14-0.51-1.14-1.14V20.45c0-0.63,0.51-1.14,1.14-1.14h5.76c0.42,0,0.76,0.34,0.76,0.76c0,0.42-0.34,0.76-0.76,0.76h-4.25
		c-0.63,0-1.14,0.51-1.14,1.14v2.65c0,0.62,0.51,1.12,1.14,1.12h4.25c0.42,0,0.76,0.34,0.76,0.76S93.92,27.27,93.5,27.27z"/>
	<path class="st0" d="M104,34.47h-7.2c-0.62,0-1.14-0.51-1.14-1.14V20.45c0-0.63,0.51-1.14,1.14-1.14h7.2
		c0.42,0,0.76,0.34,0.76,0.76c0,0.42-0.34,0.76-0.76,0.76h-3.03c-0.63,0-1.14,0.51-1.14,1.14v2.65c0,0.62,0.51,1.14,1.14,1.14H104
		c0.42,0,0.76,0.34,0.76,0.76s-0.34,0.76-0.76,0.76h-5.69c-0.63,0-1.14,0.51-1.14,1.14v3.41c0,0.63,0.51,1.14,1.14,1.14H104
		c0.42,0,0.76,0.34,0.76,0.76S104.42,34.47,104,34.47z"/>
	<path class="st0" d="M113.06,34.47h-5.76c-0.62,0-1.14-0.51-1.14-1.14V20.07c0-0.42,0.34-0.76,0.76-0.76s0.76,0.34,0.76,0.76v9.1
		c0,0.63,0.51,1.14,1.14,1.14h4.25c0.42,0,0.76,0.34,0.76,0.76v2.65C113.82,34.13,113.48,34.47,113.06,34.47z"/>
	<path class="st0" d="M123.19,34.47h-7.96V19.31h7.96c0.62,0,1.14,0.51,1.14,1.14v12.89C124.32,33.96,123.81,34.47,123.19,34.47z
		 M122.81,21.96c0-0.62-0.51-1.14-1.14-1.14h-4.93v9.48h4.93c0.63,0,1.14-0.51,1.14-1.14V21.96z"/>
</g>
<g>
	<path class="st0" d="M79.72,8.49c0.1-0.12,0.3-0.32,0.6-0.58c0.04-0.03,0.12-0.1,0.24-0.21c0.12-0.11,0.22-0.19,0.3-0.26
		c0.08-0.07,0.17-0.12,0.26-0.16c0.25-0.11,0.56-0.17,0.94-0.19c0.37-0.01,0.69,0.01,0.95,0.07c0.58,0.11,0.98,0.37,1.18,0.78
		c0.14,0.28,0.31,0.55,0.52,0.81c0.22,0.27,0.37,0.55,0.42,0.82c0.06,0.28,0.05,0.64-0.02,1.1c-0.08,0.47-0.15,0.74-0.2,0.8
		c-0.06,0.06-0.08,0.17-0.08,0.34c0,0.13-0.03,0.26-0.1,0.39c-0.07,0.13-0.23,0.38-0.48,0.75c-0.39,0.58-0.77,1-1.14,1.27
		s-0.85,0.5-1.44,0.68c-0.39,0.12-0.62,0.2-0.69,0.26c-0.09,0.05-0.29,0.03-0.59-0.06c-0.32-0.11-0.48-0.17-0.5-0.17
		c-0.03,0-0.16,0.11-0.38,0.33c-0.19,0.17-0.38,0.29-0.58,0.35c-0.19,0.07-0.46,0.11-0.82,0.12c-0.21,0.01-0.34-0.01-0.4-0.05
		s-0.15-0.19-0.29-0.44c-0.18-0.36-0.26-0.61-0.26-0.73c0-0.17,0.08-0.38,0.23-0.64c0.15-0.26,0.29-0.41,0.41-0.46
		c0.17-0.06,0.39-0.09,0.66-0.08s0.45,0.06,0.56,0.14c0.25,0.19,0.41,0.18,0.47-0.02c0-0.03,0.02-0.08,0.06-0.15
		c0.03-0.07,0.07-0.17,0.12-0.29c0.05-0.12,0.08-0.23,0.11-0.32c0.2-0.49,0.3-0.81,0.3-0.96c0-0.16-0.08-0.34-0.25-0.56
		c-0.19-0.23-0.34-0.54-0.45-0.93c-0.06-0.26-0.09-0.45-0.08-0.56c0-0.11,0.05-0.31,0.16-0.6C79.53,8.81,79.62,8.61,79.72,8.49z
		 M78.91,14.47c-0.01-0.05-0.07-0.13-0.19-0.24c-0.16-0.16-0.27-0.24-0.33-0.24c-0.07,0-0.15,0.09-0.24,0.26s-0.12,0.31-0.1,0.4
		c0.04,0.13,0.14,0.19,0.32,0.2c0.18,0,0.32-0.06,0.44-0.18C78.89,14.58,78.92,14.52,78.91,14.47z M83.78,8.88
		c-0.23-0.33-0.37-0.57-0.42-0.73c-0.02-0.06-0.05-0.13-0.1-0.19c-0.04-0.07-0.1-0.12-0.16-0.16s-0.13-0.06-0.19-0.06
		C82.9,7.74,82.7,7.77,82.3,7.81c-0.25,0.03-0.44,0.07-0.57,0.13s-0.31,0.19-0.54,0.4c-0.33,0.28-0.55,0.51-0.69,0.69
		c-0.13,0.18-0.22,0.38-0.27,0.59c-0.04,0.17-0.03,0.35,0.03,0.55c0.06,0.2,0.12,0.3,0.2,0.3c0.05,0,0.11-0.05,0.17-0.15
		c0.06-0.1,0.11-0.23,0.16-0.38c0.05-0.16,0.08-0.32,0.09-0.48c0.01-0.06,0.02-0.13,0.02-0.21s0-0.13,0-0.16
		c0-0.03,0.01-0.06,0.02-0.1c0.01-0.04,0.02-0.07,0.03-0.09s0.03-0.04,0.06-0.06c0.03-0.03,0.06-0.05,0.09-0.07
		c0.03-0.02,0.07-0.05,0.14-0.09c0.17-0.09,0.33-0.13,0.48-0.13c0.15,0.01,0.27,0.06,0.35,0.16s0.08,0.21,0.02,0.35
		C82,9.23,81.92,9.47,81.86,9.76c-0.11,0.37-0.25,0.74-0.44,1.1c-0.14,0.29-0.22,0.47-0.24,0.53c-0.01,0.07,0.03,0.13,0.12,0.2
		c0.12,0.08,0.39,0.1,0.81,0.06c0.32-0.03,0.57-0.02,0.76,0.03s0.28,0.14,0.28,0.26c0,0.14-0.1,0.23-0.3,0.27
		c-0.2,0.04-0.53,0.05-0.99,0.02c-0.15-0.01-0.26-0.01-0.34-0.02c-0.08-0.01-0.16-0.01-0.25,0c-0.1,0.01-0.16,0.01-0.18,0.01
		c-0.04,0.01-0.08,0.02-0.14,0.05c-0.05,0.03-0.09,0.05-0.1,0.08c-0.01,0.02-0.03,0.07-0.06,0.13c-0.03,0.06-0.05,0.11-0.06,0.17
		c-0.01,0.05-0.03,0.13-0.05,0.23c-0.08,0.33-0.18,0.59-0.31,0.8c-0.12,0.2-0.15,0.37-0.1,0.5c0.02,0.08,0.05,0.13,0.1,0.15
		s0.15,0.01,0.3-0.01c0.26-0.04,0.46-0.06,0.6-0.06c0.18,0,0.36-0.09,0.54-0.27c0.17-0.17,0.36-0.3,0.57-0.39
		c0.2-0.09,0.3-0.15,0.3-0.19s0.17-0.25,0.5-0.62c0.29-0.34,0.5-0.64,0.63-0.91c0.13-0.27,0.24-0.65,0.34-1.16
		c0.1-0.46,0.13-0.8,0.09-1.04S84.03,9.19,83.78,8.88z"/>
	<path class="st0" d="M89.64,14.36c0.1-0.08,0.19-0.11,0.26-0.1c0.07,0.01,0.11,0.08,0.11,0.21c0,0.03,0,0.05-0.02,0.08
		s-0.02,0.06-0.04,0.08c-0.01,0.02-0.03,0.05-0.06,0.08c-0.03,0.03-0.05,0.05-0.07,0.07c-0.02,0.02-0.05,0.04-0.08,0.07
		s-0.06,0.04-0.08,0.06c-0.02,0.01-0.05,0.03-0.08,0.05c-0.03,0.02-0.06,0.04-0.07,0.05c-0.1,0.07-0.21,0.13-0.32,0.18
		c-0.01,0.01-0.08,0.04-0.19,0.1l-0.04,0.05c-0.14,0.14-0.35,0.22-0.62,0.26c-0.17,0.02-0.3,0.02-0.4,0
		c-0.09-0.02-0.22-0.07-0.39-0.14c-0.25-0.12-0.41-0.21-0.49-0.29c-0.05-0.04-0.1-0.06-0.14-0.06c-0.04,0.01-0.11,0.05-0.21,0.13
		c-0.33,0.23-0.71,0.37-1.16,0.4c-0.45,0.03-0.75-0.06-0.88-0.27c-0.08-0.13-0.12-0.39-0.12-0.78c0.01-0.38,0.06-0.66,0.15-0.82
		c0.08-0.14,0.14-0.25,0.18-0.32c0.05-0.07,0.09-0.13,0.14-0.19c0.04-0.06,0.11-0.16,0.22-0.28c0.34-0.42,0.6-0.7,0.79-0.86
		c0.15-0.12,0.33-0.22,0.53-0.3c0.2-0.08,0.41-0.14,0.64-0.16s0.42,0,0.59,0.09c0.21,0.11,0.34,0.29,0.38,0.55
		c0.05,0.26,0.04,0.51-0.02,0.75s-0.14,0.47-0.25,0.68c-0.09,0.2-0.16,0.42-0.2,0.66c-0.04,0.24-0.04,0.4,0,0.47
		c0.1,0.2,0.43,0.22,1,0.04c0.02-0.01,0.04-0.01,0.06-0.01c0.03-0.01,0.06-0.02,0.07-0.03C89.18,14.68,89.44,14.51,89.64,14.36z
		 M87.22,12.85c0.06-0.03,0.09-0.06,0.1-0.08c0-0.02-0.01-0.05-0.04-0.08c-0.06-0.07-0.15-0.11-0.27-0.14
		c-0.12-0.02-0.23-0.02-0.34,0.02c-0.11,0.03-0.28,0.13-0.51,0.32s-0.38,0.35-0.46,0.48c-0.11,0.15-0.2,0.29-0.27,0.42
		c-0.09,0.13-0.15,0.31-0.18,0.56c-0.03,0.25-0.02,0.41,0.04,0.48c0.05,0.06,0.17,0.1,0.35,0.1c0.18,0,0.35-0.03,0.51-0.09
		c0.15-0.07,0.27-0.19,0.34-0.34c0.13-0.25,0.23-0.45,0.31-0.61c0.14-0.24,0.21-0.4,0.21-0.49c0-0.05,0.02-0.11,0.07-0.16
		c0.04-0.06,0.06-0.12,0.04-0.18C87.08,12.97,87.12,12.9,87.22,12.85z"/>
	<path class="st0" d="M90.82,12.64c-0.18,0.21-0.33,0.41-0.46,0.6s-0.19,0.3-0.18,0.35c0,0.09,0.07,0.28,0.22,0.58
		c0.18,0.35,0.39,0.52,0.63,0.52c0.05,0,0.1-0.01,0.15-0.02s0.11-0.03,0.19-0.06c0.08-0.03,0.13-0.04,0.15-0.05
		c0.06-0.02,0.15-0.06,0.29-0.14c0.17-0.1,0.32-0.21,0.47-0.33c0.12-0.1,0.22-0.14,0.31-0.12c0.09,0.02,0.13,0.1,0.14,0.25
		c0,0.05-0.01,0.1-0.04,0.14c-0.02,0.05-0.05,0.09-0.08,0.12c-0.03,0.03-0.07,0.07-0.12,0.12c-0.05,0.05-0.09,0.08-0.12,0.1
		c-0.03,0.02-0.08,0.05-0.14,0.09s-0.1,0.07-0.11,0.08c-0.04,0.03-0.11,0.07-0.19,0.12c-0.08,0.05-0.15,0.09-0.19,0.12
		c-0.18,0.12-0.37,0.19-0.55,0.22c-0.18,0.03-0.32,0.03-0.41,0c-0.09-0.02-0.22-0.09-0.4-0.21c-0.22-0.15-0.41-0.32-0.54-0.5
		c-0.14-0.18-0.23-0.35-0.28-0.52c-0.05-0.17-0.07-0.36-0.07-0.58s0.01-0.41,0.04-0.59c0.03-0.17,0.06-0.39,0.1-0.64
		s0.06-0.47,0.07-0.65c0.01-0.07,0.01-0.14,0.02-0.22c0.01-0.07,0.02-0.14,0.02-0.2c0.01-0.06,0.02-0.13,0.04-0.22
		c0.02-0.09,0.03-0.15,0.04-0.2c0.01-0.05,0.03-0.12,0.05-0.21c0.03-0.09,0.04-0.16,0.05-0.2c0.01-0.04,0.03-0.11,0.06-0.21
		s0.05-0.17,0.06-0.2c0.01-0.03,0.03-0.1,0.06-0.21c0.03-0.11,0.05-0.18,0.06-0.2c0.06-0.2,0.11-0.34,0.15-0.43
		c0.05-0.1,0.11-0.19,0.2-0.28c0.08-0.09,0.16-0.17,0.22-0.23S90.89,8.51,91,8.42c0.04-0.03,0.12-0.09,0.22-0.18
		c0.1-0.09,0.18-0.15,0.23-0.18s0.11-0.08,0.2-0.14c0.08-0.06,0.16-0.11,0.24-0.16c0.08-0.05,0.16-0.09,0.25-0.13
		c0.2-0.1,0.36-0.14,0.47-0.11c0.08,0.02,0.16,0.07,0.22,0.14c0.06,0.07,0.1,0.15,0.12,0.24c0.02,0.06,0.03,0.13,0.04,0.2
		c0.01,0.07,0.01,0.14,0,0.22c0,0.08-0.01,0.14-0.01,0.2c0,0.05-0.01,0.13-0.04,0.22s-0.04,0.16-0.04,0.2s-0.03,0.11-0.06,0.21
		c-0.03,0.1-0.06,0.16-0.06,0.19c-0.01,0.03-0.03,0.09-0.07,0.2s-0.06,0.17-0.07,0.19c-0.13,0.36-0.24,0.59-0.32,0.7
		c-0.05,0.07-0.21,0.35-0.46,0.84c-0.26,0.49-0.44,0.78-0.54,0.87C91.16,12.26,91,12.43,90.82,12.64z M90.51,11.24
		c-0.08,0.31-0.09,0.49-0.04,0.54c0.03,0.02,0.07,0,0.13-0.07c0.06-0.07,0.14-0.17,0.22-0.31c0.09-0.14,0.17-0.31,0.26-0.51
		c0.18-0.35,0.26-0.54,0.26-0.58c0-0.02,0.08-0.2,0.25-0.54c0.17-0.34,0.25-0.55,0.25-0.62c0-0.15-0.07-0.17-0.21-0.05
		c-0.09,0.07-0.18,0.18-0.26,0.33c-0.13,0.25-0.26,0.44-0.38,0.59c-0.11,0.14-0.16,0.27-0.16,0.39c0,0.12-0.04,0.21-0.12,0.29
		C90.66,10.75,90.59,10.93,90.51,11.24z"/>
</g>
<g>
	<path class="st0" d="M95.56,14.55c0.68-0.19,0.72-0.28,0.74-0.83c0.04-0.78,0.07-2.89,0.07-3.45c0-0.42,0.01-0.96-0.01-1.25
		c-0.01-0.06-0.06-0.2-0.14-0.22c-0.19-0.02-0.53-0.04-0.67-0.06c-0.13-0.02-0.26-0.07-0.26-0.13c0-0.06,0.06-0.22,0.23-0.26
		c0.49-0.13,1.01-0.26,1.39-0.44c0.23-0.11,0.38-0.18,0.42-0.18c0.06,0,0.12,0.06,0.12,0.11c0,0.2-0.02,0.91-0.02,2
		c0,0.82,0,3.21,0,3.63c0.01,0.86,0.08,0.89,0.73,1.08c0.19,0.06,0.3,0.13,0.3,0.24c0,0.1-0.08,0.18-0.34,0.18
		c-0.52,0-0.67-0.01-1.04-0.01c-0.77,0-1.13,0.06-1.54,0.06c-0.25,0-0.38-0.07-0.38-0.18C95.15,14.68,95.32,14.61,95.56,14.55z"/>
	<path class="st0" d="M105.04,10.58c0,1.64-1.13,3.5-2.79,4.47c-0.65,0.38-1.25,0.6-1.55,0.6c-0.19,0-0.3-0.1-0.3-0.19
		c0-0.07,0.06-0.14,0.26-0.24c2.1-0.98,3.23-2.75,3.23-4.62c0-0.98-0.38-2.35-1.51-2.35c-0.79,0-1.18,0.8-1.18,1.48
		c0,1.12,0.65,1.69,1.46,1.69c0.25,0,0.5-0.14,0.6-0.2c0.04-0.02,0.13,0.05,0.13,0.08c0,0.06-0.01,0.17-0.04,0.24
		c0,0.01-0.12,0.17-0.19,0.2c-0.35,0.24-0.88,0.46-1.21,0.46c-1.01,0-1.76-0.88-1.76-1.94c0-0.74,0.37-1.69,1.3-2.22
		c0.36-0.19,0.78-0.32,1.27-0.32C104.26,7.71,105.04,9.19,105.04,10.58z"/>
	<path class="st0" d="M106.12,13.3c0-0.88,0.54-1.2,1.39-1.75c0.06-0.05,0.08-0.06-0.01-0.14c-0.52-0.41-1.1-0.89-1.1-1.77
		c0-1.1,0.95-1.92,2.16-1.92c1.18,0,1.99,0.78,1.99,1.79c0,0.71-0.54,1.16-1.14,1.6c-0.07,0.06-0.05,0.13-0.01,0.14
		c0.62,0.42,1.39,0.94,1.39,1.87c0,0.72-0.4,1.22-0.91,1.56c-0.66,0.41-1.14,0.43-1.52,0.43C106.78,15.1,106.12,14.05,106.12,13.3z
		 M109.71,13.39c0-0.7-0.77-1.28-1.5-1.61c-0.04-0.01-0.17-0.01-0.25,0.02c-0.47,0.23-0.8,0.78-0.8,1.26c0,0.88,0.71,1.56,1.4,1.56
		C109.29,14.62,109.71,14.11,109.71,13.39z M107.36,9.35c0,0.71,0.79,1.27,1.32,1.5c0.08,0.04,0.26,0.02,0.29,0.01
		c0.29-0.12,0.67-0.7,0.67-1.31c0-0.4-0.38-1.37-1.21-1.37C107.81,8.18,107.36,8.69,107.36,9.35z"/>
	<path class="st0" d="M116.73,10.58c0,1.64-1.13,3.5-2.79,4.47c-0.65,0.38-1.25,0.6-1.55,0.6c-0.19,0-0.3-0.1-0.3-0.19
		c0-0.07,0.06-0.14,0.26-0.24c2.1-0.98,3.23-2.75,3.23-4.62c0-0.98-0.38-2.35-1.51-2.35c-0.79,0-1.18,0.8-1.18,1.48
		c0,1.12,0.65,1.69,1.46,1.69c0.25,0,0.5-0.14,0.6-0.2c0.04-0.02,0.13,0.05,0.13,0.08c0,0.06-0.01,0.17-0.04,0.24
		c0,0.01-0.12,0.17-0.19,0.2c-0.35,0.24-0.88,0.46-1.21,0.46c-1.01,0-1.76-0.88-1.76-1.94c0-0.74,0.37-1.69,1.3-2.22
		c0.36-0.19,0.78-0.32,1.27-0.32C115.95,7.71,116.73,9.19,116.73,10.58z"/>
</g>
</svg>
